<svg xmlns="http://www.w3.org/2000/svg" viewBox="0 0 100 100" width="100px" height="100px"><path fill="#c7ede6" d="M88.704,55.677c0.3-0.616,0.566-1.264,0.796-1.943c2.633-7.77-1.349-17.078-9.733-19.325C78.86,23.026,70.86,15.216,61.826,13.884c-10.341-1.525-19.814,5.044-22.966,15.485c-3.799-1.346-7.501-1.182-10.99,0.857c-1.583,0.732-3.031,1.812-4.33,3.233c-1.907,2.086-3.147,4.719-3.652,7.495c-0.748,0.118-1.483,0.236-2.176,0.484c-4.04,1.449-6.589,4.431-7.288,8.923c-0.435,2.797,0.443,5.587,0.933,6.714c1.935,4.455,6.422,6.98,10.981,6.312c0.227-0.033,0.557,0.069,0.752,0.233c0.241,7.12,3.698,13.417,8.884,17.014c8.321,5.772,19.027,3.994,25.781-3.921c2.894,2.96,6.338,4.398,10.384,3.876c4.023-0.519,7.147-2.739,9.426-6.349c1.053,0.283,2.051,0.691,3.083,0.804c4.042,0.442,7.324-1.165,9.732-4.8c0.922-1.391,1.793-3.194,1.793-6.354C92.174,60.634,90.88,57.667,88.704,55.677z"/><path fill="#fff" d="M18.369 47.713H8.338c-.276 0-.5-.224-.5-.5s.224-.5.5-.5h10.031c.276 0 .5.224.5.5S18.645 47.713 18.369 47.713zM21.25 47.713h-1.446c-.276 0-.5-.224-.5-.5s.224-.5.5-.5h1.446c.276 0 .5.224.5.5S21.526 47.713 21.25 47.713zM25.304 47.713h-2.546c-.276 0-.5-.224-.5-.5s.224-.5.5-.5h2.546c.276 0 .5.224.5.5S25.581 47.713 25.304 47.713zM25.304 49.578h-9.616c-.276 0-.5-.224-.5-.5s.224-.5.5-.5h9.616c.276 0 .5.224.5.5S25.581 49.578 25.304 49.578zM13.957 49.578h-.58c-.276 0-.5-.224-.5-.5s.224-.5.5-.5h.58c.276 0 .5.224.5.5S14.233 49.578 13.957 49.578zM11.58 49.578h-1.456c-.276 0-.5-.224-.5-.5s.224-.5.5-.5h1.456c.276 0 .5.224.5.5S11.856 49.578 11.58 49.578zM20.715 45.848h-5.027c-.276 0-.5-.224-.5-.5s.224-.5.5-.5h5.027c.276 0 .5.224.5.5S20.992 45.848 20.715 45.848zM20.715 43.983h-1.258c-.276 0-.5-.224-.5-.5s.224-.5.5-.5h1.258c.276 0 .5.224.5.5S20.992 43.983 20.715 43.983zM17.447 51.443h-1.759c-.276 0-.5-.224-.5-.5s.224-.5.5-.5h1.759c.276 0 .5.224.5.5S17.723 51.443 17.447 51.443zM74.394 25.392h-10.03c-.276 0-.5-.224-.5-.5s.224-.5.5-.5h10.03c.276 0 .5.224.5.5S74.671 25.392 74.394 25.392zM77.276 25.392H75.83c-.276 0-.5-.224-.5-.5s.224-.5.5-.5h1.446c.276 0 .5.224.5.5S77.552 25.392 77.276 25.392zM81.33 25.392h-2.546c-.276 0-.5-.224-.5-.5s.224-.5.5-.5h2.546c.276 0 .5.224.5.5S81.606 25.392 81.33 25.392zM81.33 27.257h-9.616c-.276 0-.5-.224-.5-.5s.224-.5.5-.5h9.616c.276 0 .5.224.5.5S81.606 27.257 81.33 27.257zM69.982 27.257h-.58c-.276 0-.5-.224-.5-.5s.224-.5.5-.5h.58c.276 0 .5.224.5.5S70.258 27.257 69.982 27.257zM67.605 27.257h-1.456c-.276 0-.5-.224-.5-.5s.224-.5.5-.5h1.456c.276 0 .5.224.5.5S67.882 27.257 67.605 27.257zM76.741 23.527h-5.027c-.276 0-.5-.224-.5-.5s.224-.5.5-.5h5.027c.276 0 .5.224.5.5S77.017 23.527 76.741 23.527zM76.741 21.662h-1.257c-.276 0-.5-.224-.5-.5s.224-.5.5-.5h1.257c.276 0 .5.224.5.5S77.017 21.662 76.741 21.662zM73.472 29.122h-1.759c-.276 0-.5-.224-.5-.5s.224-.5.5-.5h1.759c.276 0 .5.224.5.5S73.749 29.122 73.472 29.122z"/><path fill="#fdfcef" d="M74.965,48.546c0,0,10.616,0,10.681,0c2.452,0,4.439-1.987,4.439-4.439c0-2.139-1.513-3.924-3.527-4.344c0.023-0.187,0.039-0.377,0.039-0.57c0-2.539-2.058-4.598-4.597-4.598c-1.499,0-2.827,0.721-3.666,1.831c-0.215-2.826-2.739-5.007-5.693-4.646c-2.16,0.264-3.947,1.934-4.344,4.073c-0.127,0.686-0.114,1.352,0.013,1.977c-0.579-0.624-1.403-1.016-2.322-1.016c-1.68,0-3.052,1.308-3.16,2.961c-0.763-0.169-1.593-0.158-2.467,0.17c-1.671,0.627-2.861,2.2-2.93,3.983c-0.099,2.533,1.925,4.617,4.435,4.617c0.191,0,0.861,0,1.015,0h9.218"/><path fill="#472b29" d="M85.646,49.046H74.965c-0.276,0-0.5-0.224-0.5-0.5s0.224-0.5,0.5-0.5h10.681c2.172,0,3.938-1.767,3.938-3.939c0-1.854-1.315-3.476-3.129-3.855c-0.254-0.053-0.425-0.291-0.394-0.549c0.02-0.168,0.035-0.337,0.035-0.511c0-2.259-1.838-4.098-4.098-4.098c-1.292,0-2.483,0.595-3.267,1.632c-0.126,0.166-0.344,0.237-0.54,0.179c-0.2-0.059-0.342-0.235-0.358-0.442c-0.094-1.238-0.7-2.401-1.663-3.191c-0.973-0.797-2.207-1.148-3.471-0.997c-1.946,0.238-3.556,1.747-3.913,3.668c-0.111,0.599-0.107,1.2,0.012,1.786c0.044,0.22-0.062,0.442-0.262,0.544c-0.196,0.103-0.441,0.061-0.595-0.104c-0.513-0.552-1.207-0.856-1.955-0.856c-1.4,0-2.569,1.095-2.661,2.494c-0.01,0.146-0.082,0.28-0.199,0.367c-0.116,0.087-0.269,0.118-0.407,0.088c-0.754-0.167-1.471-0.118-2.184,0.15c-1.499,0.562-2.547,1.983-2.606,3.535c-0.043,1.083,0.347,2.11,1.097,2.889c0.749,0.779,1.758,1.208,2.839,1.208h10.233c0.276,0,0.5,0.224,0.5,0.5s-0.224,0.5-0.5,0.5H61.866c-1.355,0-2.62-0.538-3.56-1.516c-0.94-0.977-1.429-2.263-1.376-3.621c0.076-1.949,1.384-3.73,3.255-4.432c0.721-0.27,1.462-0.363,2.221-0.279c0.362-1.655,1.842-2.884,3.582-2.884c0.603,0,1.193,0.151,1.72,0.432c0.004-0.328,0.036-0.656,0.098-0.984c0.436-2.346,2.398-4.188,4.774-4.478c1.532-0.192,3.039,0.244,4.226,1.216c0.899,0.737,1.544,1.742,1.847,2.851c0.919-0.807,2.095-1.256,3.348-1.256c2.811,0,5.098,2.287,5.098,5.098c0,0.064-0.002,0.128-0.005,0.192c2.048,0.628,3.492,2.547,3.492,4.723C90.585,46.83,88.369,49.046,85.646,49.046z"/><path fill="#fdfcef" d="M72.392,38.767c-1.642-0.108-3.055,1.026-3.157,2.533c-0.013,0.187-0.004,0.371,0.023,0.55c-0.317-0.358-0.786-0.6-1.324-0.636c-0.985-0.065-1.836,0.586-1.959,1.471c-0.179-0.049-0.366-0.082-0.56-0.095c-1.437-0.094-2.674,0.898-2.762,2.216"/><path fill="#472b29" d="M62.654,45.057c-0.006,0-0.011,0-0.017,0c-0.138-0.009-0.242-0.128-0.232-0.266c0.098-1.453,1.455-2.552,3.027-2.449c0.118,0.008,0.235,0.022,0.354,0.044c0.26-0.878,1.17-1.49,2.166-1.42c0.376,0.025,0.729,0.139,1.034,0.33c0-0.004,0-0.008,0.001-0.012c0.109-1.641,1.628-2.879,3.422-2.765c0.138,0.009,0.242,0.128,0.232,0.266c-0.008,0.137-0.101,0.245-0.266,0.233c-1.514-0.099-2.799,0.933-2.891,2.3c-0.011,0.164-0.004,0.331,0.021,0.497c0.017,0.109-0.041,0.217-0.142,0.263c-0.102,0.045-0.22,0.022-0.293-0.061c-0.284-0.321-0.704-0.522-1.152-0.552c-0.85-0.046-1.589,0.497-1.694,1.256c-0.011,0.071-0.05,0.134-0.11,0.174c-0.059,0.04-0.133,0.053-0.203,0.033c-0.176-0.047-0.343-0.076-0.512-0.086c-1.303-0.093-2.417,0.805-2.496,1.983C62.894,44.956,62.785,45.057,62.654,45.057z"/><path fill="#fdfcef" d="M87.443,40.283c-1.543-0.727-3.327-0.213-3.985,1.15c-0.082,0.169-0.142,0.344-0.182,0.521"/><path fill="#472b29" d="M83.275,42.204c-0.018,0-0.036-0.002-0.055-0.006c-0.135-0.03-0.22-0.164-0.189-0.299c0.045-0.197,0.112-0.391,0.202-0.575c0.715-1.484,2.652-2.054,4.316-1.268c0.125,0.059,0.179,0.208,0.12,0.333c-0.06,0.126-0.21,0.177-0.333,0.12c-1.42-0.67-3.056-0.204-3.653,1.033c-0.073,0.15-0.128,0.307-0.164,0.467C83.493,42.125,83.389,42.204,83.275,42.204z"/><path fill="#a8dbdb" d="M65.26,69.974H39.538c-3.766,0-6.847-3.081-6.847-6.847V37.405c0-3.766,3.081-6.847,6.847-6.847H65.26c3.766,0,6.847,3.081,6.847,6.847v25.722C72.108,66.893,69.026,69.974,65.26,69.974z"/><path fill="#472b29" d="M65.26,70.675H39.538c-4.161,0-7.547-3.386-7.547-7.547V37.405c0-4.162,3.386-7.547,7.547-7.547H65.26c4.161,0,7.547,3.386,7.547,7.547v25.722C72.807,67.289,69.422,70.675,65.26,70.675z M39.538,31.258c-3.39,0-6.146,2.757-6.146,6.147v25.722c0,3.39,2.757,6.147,6.146,6.147H65.26c3.39,0,6.146-2.757,6.146-6.147V37.405c0-3.39-2.757-6.147-6.146-6.147H39.538z"/><path fill="#fdfcee" d="M63.743,67.159H41.055c-3.052,0-5.549-2.497-5.549-5.549V38.922c0-3.052,2.497-5.549,5.549-5.549h22.688c3.052,0,5.549,2.497,5.549,5.549V61.61C69.292,64.662,66.795,67.159,63.743,67.159z"/><path fill="#472b29" d="M64.158,67.509H40.64c-3.023,0-5.483-2.46-5.483-5.484V38.508c0-3.024,2.46-5.484,5.483-5.484h22.396c0.193,0,0.35,0.157,0.35,0.35s-0.156,0.35-0.35,0.35H40.64c-2.638,0-4.784,2.146-4.784,4.784v23.517c0,2.638,2.146,4.784,4.784,4.784h23.518c2.638,0,4.784-2.146,4.784-4.784v-13.01c0-0.193,0.156-0.35,0.35-0.35s0.35,0.157,0.35,0.35v13.01C69.641,65.049,67.181,67.509,64.158,67.509z"/><path fill="#472b29" d="M69.292 47.488c-.193 0-.35-.157-.35-.35v-2.503c0-.193.156-.35.35-.35s.35.157.35.35v2.503C69.641 47.331 69.485 47.488 69.292 47.488zM69.292 43.734c-.193 0-.35-.157-.35-.35v-1.251c0-.193.156-.35.35-.35s.35.157.35.35v1.251C69.641 43.577 69.485 43.734 69.292 43.734z"/><path fill="#00b3f1" d="M61.55,52.06c0.141-0.632,0.216-1.286,0.216-1.959c0-5.041-4.147-9.128-9.263-9.128c-0.542,0-1.07,0.046-1.585,0.133c-0.827-0.514-1.807-0.812-2.858-0.812c-2.967,0-5.372,2.37-5.372,5.293c0,0.977,0.271,1.892,0.738,2.678c-0.123,0.593-0.187,1.207-0.187,1.836c0,5.041,4.146,9.128,9.264,9.128c0.579,0,1.145-0.053,1.694-0.153c0.756,0.401,1.622,0.629,2.541,0.629c2.966,0,5.372-2.37,5.372-5.294C62.11,53.566,61.909,52.768,61.55,52.06z"/><path fill="#472b29" d="M56.739,60.055c-0.901,0-1.797-0.212-2.597-0.614c-0.537,0.092-1.088,0.139-1.639,0.139c-5.301,0-9.613-4.251-9.613-9.478c0-0.595,0.056-1.192,0.167-1.775c-0.471-0.836-0.719-1.78-0.719-2.739c0-3.111,2.566-5.643,5.722-5.643c1.035,0,2.045,0.275,2.929,0.796c0.501-0.078,1.01-0.118,1.514-0.118c5.301,0,9.613,4.252,9.613,9.479c0,0.641-0.066,1.284-0.197,1.913c0.359,0.751,0.541,1.557,0.541,2.396C62.46,57.523,59.893,60.055,56.739,60.055z M54.198,58.725c0.057,0,0.113,0.014,0.164,0.041c0.726,0.385,1.548,0.588,2.377,0.588c2.769,0,5.021-2.218,5.021-4.943c0-0.771-0.176-1.509-0.522-2.193c-0.036-0.072-0.047-0.155-0.029-0.234c0.138-0.618,0.208-1.251,0.208-1.882c0-4.84-3.999-8.778-8.914-8.778c-0.509,0-1.022,0.043-1.526,0.129c-0.085,0.012-0.17-0.003-0.243-0.048c-0.799-0.497-1.724-0.759-2.673-0.759c-2.77,0-5.022,2.217-5.022,4.943c0,0.877,0.238,1.742,0.689,2.499c0.045,0.075,0.06,0.164,0.042,0.25c-0.119,0.579-0.18,1.172-0.18,1.766c0,4.84,3.999,8.777,8.914,8.777c0.549,0,1.098-0.05,1.631-0.148C54.156,58.727,54.176,58.725,54.198,58.725z"/><path fill="#fdfcef" d="M49.938,44.359L49.938,44.359c-0.695,0.285-1.236,0.7-1.606,1.235c-0.374,0.538-0.563,1.162-0.563,1.855c0,0.726,0.18,1.344,0.536,1.836c0.351,0.485,0.829,0.872,1.423,1.152c0.581,0.272,1.31,0.514,2.171,0.718c0.632,0.146,1.142,0.286,1.518,0.417c0.362,0.124,0.659,0.306,0.884,0.539c0.214,0.223,0.319,0.507,0.319,0.869c0,0.458-0.2,0.831-0.613,1.143c-0.422,0.318-0.982,0.481-1.668,0.481c-0.497,0-0.901-0.081-1.202-0.237c-0.299-0.157-0.532-0.357-0.695-0.594c-0.168-0.248-0.329-0.561-0.476-0.934c-0.132-0.341-0.294-0.605-0.486-0.784c-0.199-0.187-0.445-0.281-0.73-0.281c-0.345,0-0.636,0.119-0.864,0.356c-0.228,0.238-0.345,0.529-0.345,0.865c0,0.537,0.178,1.094,0.53,1.655c0.348,0.556,0.807,1.007,1.363,1.339c0.779,0.457,1.776,0.689,2.965,0.689c0.99,0,1.861-0.169,2.588-0.503c0.733-0.338,1.299-0.812,1.682-1.413c0.385-0.602,0.579-1.29,0.579-2.044c0-0.631-0.113-1.173-0.337-1.613c-0.223-0.438-0.537-0.805-0.933-1.091c-0.389-0.28-0.866-0.521-1.418-0.716c-0.544-0.194-1.159-0.371-1.83-0.531c-0.53-0.136-0.916-0.24-1.146-0.31c-0.224-0.069-0.448-0.166-0.666-0.286c-0.21-0.116-0.377-0.257-0.494-0.416c-0.112-0.15-0.166-0.325-0.166-0.534c0-0.341,0.168-0.627,0.514-0.878c0.359-0.261,0.842-0.392,1.435-0.392c0.639,0,1.104,0.118,1.383,0.352c0.288,0.24,0.537,0.584,0.743,1.017c0.178,0.34,0.34,0.576,0.494,0.728c0.167,0.163,0.406,0.246,0.714,0.246c0.337,0,0.622-0.132,0.848-0.392c0.226-0.26,0.341-0.557,0.341-0.884c0-0.34-0.087-0.692-0.259-1.045c-0.17-0.349-0.442-0.687-0.806-1.001c-0.362-0.312-0.821-0.567-1.367-0.755c-0.544-0.187-1.194-0.281-1.933-0.281C51.441,43.935,50.625,44.078,49.938,44.359z"/><path fill="#472b29" d="M52.399,57.027c-1.253,0-2.311-0.248-3.143-0.737c-0.608-0.364-1.105-0.853-1.481-1.456c-0.387-0.615-0.583-1.234-0.583-1.84c0-0.423,0.152-0.806,0.44-1.107c0.538-0.561,1.517-0.624,2.087-0.087c0.227,0.21,0.42,0.518,0.572,0.912c0.135,0.343,0.282,0.634,0.438,0.863c0.13,0.189,0.321,0.352,0.567,0.481c0.252,0.131,0.603,0.197,1.04,0.197c0.606,0,1.097-0.138,1.457-0.411c0.323-0.244,0.475-0.518,0.475-0.863c0-0.271-0.07-0.47-0.222-0.626c-0.187-0.194-0.437-0.345-0.745-0.451c-0.364-0.126-0.863-0.263-1.484-0.407c-0.88-0.208-1.634-0.458-2.24-0.742c-0.647-0.305-1.172-0.73-1.558-1.264c-0.399-0.552-0.602-1.238-0.602-2.041c0-0.765,0.21-1.456,0.624-2.054c0.41-0.591,1.002-1.048,1.762-1.359l0,0c0.729-0.298,1.59-0.45,2.558-0.45c0.002,0,0.003,0,0.005,0c0.777,0,1.465,0.101,2.046,0.3c0.585,0.201,1.083,0.478,1.481,0.821c0.4,0.345,0.7,0.72,0.892,1.113c0.196,0.402,0.295,0.806,0.295,1.199c0,0.414-0.144,0.789-0.428,1.114c-0.558,0.643-1.58,0.646-2.069,0.167c-0.186-0.182-0.368-0.449-0.561-0.816c-0.192-0.403-0.411-0.706-0.657-0.911c-0.147-0.124-0.469-0.271-1.158-0.271c-0.519,0-0.933,0.109-1.229,0.325c-0.328,0.238-0.37,0.443-0.37,0.595c0,0.133,0.031,0.237,0.097,0.326c0.088,0.119,0.217,0.226,0.383,0.317c0.197,0.109,0.399,0.196,0.599,0.257c0.227,0.069,0.607,0.171,1.13,0.306c0.683,0.162,1.312,0.344,1.861,0.54c0.584,0.206,1.09,0.462,1.505,0.762c0.442,0.32,0.793,0.729,1.04,1.216c0.249,0.488,0.374,1.084,0.374,1.772c0,0.825-0.213,1.576-0.634,2.233c-0.417,0.655-1.032,1.174-1.83,1.542C54.359,56.847,53.439,57.027,52.399,57.027z M48.75,52.124c-0.251,0-0.451,0.081-0.611,0.248c-0.166,0.173-0.247,0.377-0.247,0.623c0,0.472,0.161,0.966,0.477,1.468c0.317,0.509,0.736,0.92,1.246,1.225c0.721,0.423,1.658,0.639,2.785,0.639c0.938,0,1.76-0.158,2.442-0.471c0.672-0.31,1.188-0.741,1.532-1.282c0.348-0.543,0.524-1.167,0.524-1.856c0-0.576-0.101-1.066-0.298-1.455c-0.197-0.387-0.476-0.711-0.827-0.966c-0.36-0.26-0.808-0.485-1.329-0.669c-0.526-0.188-1.131-0.362-1.795-0.521c-0.542-0.139-0.935-0.245-1.167-0.316c-0.246-0.076-0.492-0.181-0.732-0.313c-0.254-0.141-0.458-0.313-0.606-0.514c-0.155-0.21-0.233-0.459-0.233-0.742c0-0.454,0.221-0.844,0.657-1.161c0.419-0.304,0.971-0.459,1.641-0.459c0.732,0,1.259,0.142,1.607,0.434c0.323,0.271,0.604,0.653,0.834,1.135c0.15,0.287,0.295,0.502,0.424,0.629c0.206,0.202,0.749,0.222,1.052-0.126c0.173-0.198,0.257-0.412,0.257-0.655c0-0.286-0.076-0.586-0.225-0.892c-0.149-0.308-0.392-0.606-0.72-0.889c-0.331-0.285-0.752-0.517-1.252-0.689c-0.507-0.174-1.119-0.262-1.818-0.262c-0.002,0-0.003,0-0.005,0c-0.877,0-1.647,0.134-2.292,0.397c-0.633,0.259-1.121,0.632-1.451,1.11c-0.332,0.479-0.501,1.036-0.501,1.655c0,0.652,0.158,1.201,0.469,1.631c0.316,0.437,0.75,0.787,1.289,1.041c0.562,0.264,1.271,0.498,2.102,0.694c0.644,0.149,1.167,0.293,1.553,0.427c0.414,0.142,0.758,0.353,1.021,0.627c0.277,0.287,0.417,0.661,0.417,1.112c0,0.567-0.253,1.045-0.752,1.422c-0.484,0.366-1.117,0.552-1.879,0.552c-0.552,0-1.01-0.093-1.363-0.277c-0.351-0.184-0.627-0.422-0.822-0.708c-0.186-0.273-0.358-0.61-0.513-1.003c-0.114-0.296-0.248-0.516-0.398-0.655C49.106,52.185,48.946,52.124,48.75,52.124z"/><path fill="#fdfcef" d="M42.126,72.487c1.71,0,3.194,0,3.215,0c1.916,0,3.469-1.52,3.469-3.396c0-1.636-1.182-3.001-2.756-3.323c0.018-0.143,0.031-0.288,0.031-0.436c0-1.942-1.609-3.517-3.593-3.517c-1.172,0-2.209,0.551-2.865,1.401c-0.168-2.162-2.141-3.83-4.45-3.554c-1.688,0.202-3.084,1.479-3.395,3.116c-0.1,0.525-0.089,1.034,0.01,1.512c-0.453-0.477-1.097-0.777-1.814-0.777c-1.313,0-2.385,1.001-2.47,2.265c-0.596-0.129-1.245-0.121-1.928,0.13c-1.306,0.48-2.236,1.683-2.29,3.047c-0.077,1.937,1.504,3.532,3.467,3.532c0.149,0,0.673,0,0.794,0h7.204 M36.245,72.487h0.327"/><path fill="#472b29" d="M45.341,72.987h-3.215c-0.276,0-0.5-0.224-0.5-0.5s0.224-0.5,0.5-0.5h3.215c1.637,0,2.969-1.299,2.969-2.896c0-1.363-0.991-2.554-2.356-2.833c-0.255-0.052-0.428-0.292-0.396-0.551c0.015-0.123,0.026-0.248,0.026-0.375c0-1.664-1.388-3.017-3.094-3.017c-0.978,0-1.877,0.439-2.469,1.207c-0.126,0.164-0.343,0.233-0.538,0.173c-0.198-0.059-0.34-0.234-0.355-0.44c-0.071-0.913-0.507-1.741-1.228-2.332c-0.743-0.609-1.688-0.879-2.665-0.764c-1.475,0.177-2.693,1.292-2.963,2.712c-0.084,0.444-0.082,0.887,0.008,1.317c0.046,0.219-0.06,0.441-0.258,0.545c-0.197,0.104-0.439,0.063-0.595-0.099c-0.38-0.401-0.896-0.622-1.451-0.622c-1.037,0-1.903,0.79-1.971,1.799c-0.01,0.145-0.082,0.278-0.198,0.366c-0.116,0.088-0.264,0.119-0.406,0.089c-0.571-0.124-1.111-0.087-1.649,0.111c-1.129,0.415-1.919,1.458-1.964,2.598c-0.031,0.782,0.253,1.526,0.8,2.096c0.567,0.591,1.337,0.916,2.167,0.916h7.998c0.276,0,0.5,0.224,0.5,0.5s-0.224,0.5-0.5,0.5h-7.998c-1.089,0-2.141-0.446-2.889-1.223c-0.737-0.768-1.12-1.772-1.078-2.829c0.062-1.539,1.114-2.943,2.618-3.496c0.549-0.202,1.117-0.277,1.688-0.228c0.332-1.268,1.507-2.198,2.882-2.198c0.431,0,0.854,0.094,1.241,0.269c0.011-0.198,0.034-0.397,0.072-0.597c0.35-1.844,1.924-3.291,3.826-3.519c1.251-0.147,2.463,0.2,3.418,0.984c0.668,0.548,1.147,1.254,1.399,2.047c0.718-0.568,1.609-0.882,2.557-0.882c2.257,0,4.094,1.802,4.094,4.017c0,0.02,0,0.04-0.001,0.059c1.604,0.52,2.727,2.012,2.727,3.7C49.31,71.239,47.53,72.987,45.341,72.987z M36.571,72.987h-0.326c-0.276,0-0.5-0.224-0.5-0.5s0.224-0.5,0.5-0.5h0.326c0.276,0,0.5,0.224,0.5,0.5S36.847,72.987,36.571,72.987z"/><path fill="#472b29" d="M43.791 67.695c-.018 0-.036-.002-.055-.006-.135-.03-.22-.164-.189-.299.034-.152.087-.3.155-.44.556-1.122 2.086-1.538 3.41-.925.126.058.181.207.122.332-.057.125-.209.18-.331.122-1.081-.499-2.316-.19-2.753.692-.051.104-.09.214-.115.328C44.008 67.615 43.905 67.695 43.791 67.695zM39.106 72.987H38.1c-.276 0-.5-.224-.5-.5s.224-.5.5-.5h1.006c.276 0 .5.224.5.5S39.382 72.987 39.106 72.987z"/></svg>